<svg version="1.1" id="Layer_1" xmlns="http://www.w3.org/2000/svg" xmlns:xlink="http://www.w3.org/1999/xlink" x="0px" y="0px"
	 width="100%" viewBox="0 0 1024 1024" enable-background="new 0 0 1024 1024" xml:space="preserve">
<path fill="#000000" opacity="1.000000" stroke="none" 
	d="
M503.537292,856.519226 
	C557.645325,809.840942 599.958984,755.094788 626.423218,688.068176 
	C623.078613,687.639954 622.642212,689.334106 621.799866,690.464478 
	C600.417297,719.159729 576.525818,745.539307 549.269714,768.785767 
	C509.985992,802.290405 466.076050,827.363892 416.201508,841.505493 
	C410.606140,843.091980 405.038757,844.786377 399.410065,846.244080 
	C389.382782,848.840820 379.996735,846.261108 370.773804,842.470154 
	C339.572052,829.644836 311.395569,811.712952 284.593719,791.459839 
	C284.093933,791.082214 283.779053,790.459961 282.334290,788.630066 
	C318.296417,789.399719 352.884369,787.230103 386.888153,778.916504 
	C420.848694,770.613464 452.893555,757.825928 483.257507,740.365662 
	C481.808624,738.109192 480.550323,738.783752 479.262390,739.143066 
	C440.242004,750.027954 400.345581,753.074707 360.112854,751.165527 
	C312.179413,748.890991 266.561523,737.406677 223.925049,714.732239 
	C208.670410,706.619690 199.439621,693.722473 191.663879,679.058044 
	C171.689423,641.387756 158.016602,601.571838 151.994751,559.392090 
	C148.538864,535.185547 147.252686,510.721252 149.555084,486.225128 
	C149.800873,483.610046 149.588181,480.951874 149.588181,478.055969 
	C152.586334,478.139404 153.230682,480.261841 154.256897,481.748810 
	C174.670303,511.327454 197.417587,538.879211 224.173416,563.012939 
	C254.860336,590.692505 288.986145,613.039001 326.811157,629.711548 
	C327.714417,630.109619 328.661102,630.445801 329.621094,630.661316 
	C330.038605,630.755066 330.541229,630.469421 330.994934,630.358643 
	C331.620239,628.004211 329.655304,627.476196 328.453186,626.529236 
	C287.527863,594.291321 252.345535,556.798096 224.658249,512.539001 
	C202.388458,476.940033 186.540283,438.748627 178.782288,397.316803 
	C174.633484,375.160034 177.447144,354.687347 187.686172,334.064117 
	C215.065247,278.917725 254.401154,234.854080 305.456757,200.903244 
	C306.704742,200.073364 307.976501,199.276764 309.266266,198.513794 
	C309.668671,198.275742 310.166809,198.199600 312.054230,197.575272 
	C289.356873,276.886200 284.858337,355.987640 304.842773,436.243896 
	C307.745544,434.800995 307.374329,432.736450 307.488922,431.136780 
	C308.284943,420.024078 308.815308,408.891754 309.660095,397.783173 
	C313.229492,350.847443 321.551208,304.923950 338.893616,260.917389 
	C350.727692,230.888321 366.832794,203.422363 388.177551,179.178787 
	C398.199860,167.795334 408.570648,156.617126 422.797363,150.217743 
	C434.154236,145.109253 446.409912,143.466492 458.568451,141.817444 
	C469.925934,140.277054 481.383850,139.791443 492.878510,139.501678 
	C536.306946,138.406952 578.231445,146.124405 619.200684,159.964920 
	C623.243774,161.330765 627.278992,162.719955 631.465271,164.812561 
	C594.354370,178.886292 559.118225,196.207581 526.590698,218.748825 
	C493.886505,241.412537 466.038910,269.055908 442.296356,300.955780 
	C447.468872,299.259064 451.233032,295.456757 455.469879,292.446777 
	C504.349976,257.721069 557.285095,232.019745 616.355652,219.958160 
	C641.768188,214.769196 667.526062,213.573837 693.326294,214.888031 
	C707.204773,215.594940 721.232910,216.629578 734.629517,220.884171 
	C749.350525,225.559372 760.834656,235.378647 771.362610,246.098007 
	C819.225037,294.830688 849.774780,353.153625 866.292786,419.127228 
	C866.603516,420.368225 866.723022,421.657013 867.219055,424.666931 
	C800.117798,368.123962 725.064575,334.879089 636.456787,332.159607 
	C639.190186,334.763092 641.553162,334.722382 643.544678,335.458527 
	C645.567810,336.206329 647.680359,336.707977 649.734802,337.375763 
	C714.260803,358.348785 770.151794,392.779785 815.715454,443.473755 
	C837.307373,467.496948 854.496216,494.100922 866.522095,524.205505 
	C872.895203,540.159424 873.706543,555.831848 870.092957,572.427612 
	C855.540283,639.261292 825.542053,698.242737 780.915955,749.918030 
	C780.188660,750.760315 779.638550,751.920837 777.857117,751.884521 
	C777.857117,746.030579 777.546570,740.144653 777.914612,734.301453 
	C779.077881,715.832520 778.818604,697.400452 777.885742,678.920532 
	C776.844360,658.290161 774.145569,637.931580 769.615601,617.818787 
	C761.991150,583.966492 749.445251,552.032349 731.628418,522.216431 
	C730.636230,520.556091 729.948120,518.560913 727.797546,517.584839 
	C726.064209,519.065613 727.293823,520.705627 727.686157,522.077820 
	C734.780823,546.893738 739.095032,572.172546 741.510254,597.875305 
	C743.541870,619.495972 743.906189,641.081665 742.241394,662.678101 
	C738.478516,711.492615 726.294189,757.947754 702.724487,801.153259 
	C694.719177,815.827759 683.321472,826.808289 668.356689,834.187622 
	C637.241882,849.530701 604.537048,859.797363 570.301697,865.373291 
	C546.261414,869.288696 522.111572,871.134033 497.766144,870.190735 
	C495.172913,870.090210 492.464478,870.472229 489.166840,868.661560 
	C494.092621,864.504883 498.683441,860.630798 503.537292,856.519226 
M603.316711,628.773438 
	C620.399170,618.716553 637.456177,608.616150 654.576477,598.624023 
	C661.554871,594.551147 664.772705,588.785095 664.747681,580.572571 
	C664.597656,531.243225 664.575500,481.912750 664.762390,432.583618 
	C664.797852,423.227081 661.073364,416.855957 653.097778,412.198059 
	C610.236389,387.165833 567.408875,362.074127 524.712769,336.761566 
	C516.792114,332.065796 509.871002,332.100250 501.951355,336.821442 
	C480.208771,349.783020 458.158112,362.227448 436.243805,374.901550 
	C415.627533,386.824982 395.114716,398.930695 374.386444,410.655823 
	C364.516083,416.239014 360.158508,424.096313 360.227264,435.514709 
	C360.508270,482.176392 360.622223,528.843445 360.159119,575.502197 
	C360.038269,587.678650 364.684448,595.363770 374.978546,601.386230 
	C415.519257,625.104248 455.987946,648.959351 496.053833,673.465820 
	C507.186951,680.275452 516.322021,680.354797 527.357666,673.542603 
	C552.154541,658.235596 577.545471,643.891113 603.316711,628.773438 
z"/>
</svg>